<svg width="16" height="18" viewBox="0 0 16 18" fill="none" xmlns="http://www.w3.org/2000/svg">
<path fill-rule="evenodd" clip-rule="evenodd" d="M8.31126 16.832C8.11235 17.056 7.76252 17.056 7.56361 16.832L1.12911 9.58784C0.84266 9.26534 1.07159 8.75579 1.50293 8.75579H3.93757C4.21371 8.75579 4.43757 8.53193 4.43757 8.25579V2.00573C4.43757 1.72959 4.66143 1.50573 4.93757 1.50573H10.9376C11.2137 1.50573 11.4376 1.72959 11.4376 2.00573V8.25579C11.4376 8.53193 11.6614 8.75579 11.9376 8.75579H14.3719C14.8033 8.75579 15.0322 9.26535 14.7458 9.58784L8.31126 16.832L8.68509 17.1641L8.31126 16.832ZM6.81596 17.4961C7.41269 18.1679 8.46218 18.1679 9.05892 17.4961L15.4934 10.2519C16.3528 9.28445 15.666 7.75579 14.3719 7.75579H12.4376V2.00573C12.4376 1.1773 11.766 0.505733 10.9376 0.505733H4.93757C4.10914 0.505733 3.43757 1.17731 3.43757 2.00573V7.75579H1.50293C0.208922 7.75579 -0.477888 9.28445 0.381452 10.2519L6.81596 17.4961Z" fill="white"/>
</svg>
