<svg width="16" height="18" viewBox="0 0 16 18" fill="none" xmlns="http://www.w3.org/2000/svg">
<path fill-rule="evenodd" clip-rule="evenodd" d="M8.3112 1.16799C8.11228 0.944045 7.76245 0.944045 7.56354 1.16799L1.12904 8.41216C0.842591 8.73466 1.07153 9.24421 1.50286 9.24421H3.9375C4.21364 9.24421 4.4375 9.46807 4.4375 9.74421V15.9943C4.4375 16.2704 4.66136 16.4943 4.9375 16.4943H10.9375C11.2136 16.4943 11.4375 16.2704 11.4375 15.9943V9.74421C11.4375 9.46807 11.6614 9.24421 11.9375 9.24421H14.3719C14.8032 9.24421 15.0321 8.73465 14.7457 8.41216L8.3112 1.16799L8.68502 0.835942L8.3112 1.16799ZM6.81589 0.503897C7.41262 -0.167925 8.46212 -0.167925 9.05885 0.503897L15.4934 7.74807C16.3527 8.71555 15.6659 10.2442 14.3719 10.2442H12.4375V15.9943C12.4375 16.8227 11.7659 17.4943 10.9375 17.4943H4.9375C4.10908 17.4943 3.4375 16.8227 3.4375 15.9943V10.2442H1.50286C0.208853 10.2442 -0.477957 8.71555 0.381384 7.74808L6.81589 0.503897Z" fill="white"/>
</svg>
